<?xml version="1.0" standalone="no"?>
<!DOCTYPE svg PUBLIC "-//W3C//DTD SVG 1.1//EN"
  "http://www.w3.org/Graphics/SVG/1.1/DTD/svg11.dtd">
<svg width="422mm" height="421.9999999999999mm" viewBox="-81 -272.99999999999994 422 421.9999999999999" xmlns="http://www.w3.org/2000/svg" version="1.1">
	<title>svgOutput</title>
	<desc>made with tinkercad</desc>
<path d="M 98 10.999999999999998 L 41 10.999999999999998 L 41 -108.99999999999997 L 98 -108.99999999999997 L 98 10.999999999999998 M 215 6.999999999999998 L 158 6.999999999999998 L 158 -112.99999999999997 L 215 -112.99999999999997 L 215 6.999999999999998 M 340 147.99999999999997 L -80 147.99999999999997 L -80 143.00300598144528 L -80 -267.0020141601562 L -80 -271.99999999999994 L 340 -271.99999999999994 L 340 -267.0020141601562 L 340 143.00300598144528 L 340 147.99999999999997 M 215 143.00300598144528 L 335.00299072265625 143.00300598144528 L 335.00299072265625 -267.0020141601562 L 215 -267.0020141601562 L 158 -267.0020141601562 L 98 -267.0020141601562 L 41 -267.0020141601562 L -75.00199890136719 -267.0020141601562 L -75.00199890136719 143.00300598144528 L 41 143.00300598144528 L 98 143.00300598144528 L 158 143.00300598144528 L 215 143.00300598144528 z" fill="none" stroke="rgb(255,0,0)" stroke-width="0.001mm" />
</svg>