<svg width="1350mm" height="450mm" viewBox="0 0 1350 450" xmlns="http://www.w3.org/2000/svg" version="1.1" preserveAspectRatio="xMidYMid meet"><g id="svgGroup" stroke-linecap="round" fill-rule="evenodd" font-size="9pt" stroke="#000" stroke-width="0.25mm" fill="none" style="stroke:#000;stroke-width:0.25mm;fill:none"><path d="M 0 234.31 L 0 285.69 L 9 285.69 L 9 313.414 L 0 313.414 L 0 341.138 L 9 341.138 L 9 368.862 L 0 368.862 L 0 396.586 L 9 396.586 L 9 424.31 L 0 424.31 L 0 450 L 44.793 450 L 44.793 441 L 72.517 441 L 72.517 450 L 100.242 450 L 100.242 441 L 127.966 441 L 127.966 450 L 155.69 450 L 155.69 441 L 183.414 441 L 183.414 450 L 211.138 450 L 211.138 441 L 238.862 441 L 238.862 450 L 266.586 450 L 266.586 441 L 294.31 441 L 294.31 450 L 322.034 450 L 322.034 441 L 349.758 441 L 349.758 450 L 377.483 450 L 377.483 441 L 405.207 441 L 405.207 450 L 432.931 450 L 450 450 L 450 396.586 L 450 341.138 L 450 285.69 L 450 206.586 M 459 313.414 L 441 313.414 L 441 285.69 L 459 285.69 M 459 424.31 L 441 424.31 L 441 396.586 L 459 396.586 M 459 368.862 L 441 368.862 L 441 341.138 L 459 341.138 M 0 260 450 260" id="front_outsideCutPath" stroke="#FF0000" stroke-width="0.1" style="stroke:#FF0000;stroke-width:0.1" vector-effect="non-scaling-stroke"/><path d="M 900 377.483 L 900 424.31 L 891 424.31 L 891 450 L 882.931 450 L 855.207 450 L 855.207 441 L 827.483 441 L 827.483 450 L 799.758 450 L 799.758 441 L 772.034 441 L 772.034 450 L 744.31 450 L 744.31 441 L 716.586 441 L 716.586 450 L 688.862 450 L 688.862 441 L 661.138 441 L 661.138 450 L 633.414 450 L 633.414 441 L 605.69 441 L 605.69 450 L 577.966 450 L 577.966 441 L 550.242 441 L 550.242 450 L 522.517 450 L 522.517 441 L 494.793 441 L 494.793 450 L 459 450 L 459 424.31 M 900 266.586 L 900 313.414 L 891 313.414 L 891 341.138 L 900 341.138 M 900 322.034 L 900 368.862 L 891 368.862 L 891 396.586 L 900 396.586 M 891 234.31 L 891 285.69 L 900 285.69 M 459 285.69 459 234.31 M 459 313.414 459 341.138 M 459 368.862 459 396.586 M 459 260 891 260" id="left_outsideCutPath" stroke="#FF0000" stroke-width="0.1" style="stroke:#FF0000;stroke-width:0.1" vector-effect="non-scaling-stroke"/><path d="M 0 234.31 L 9 234.31 L 9 206.586 L 0 206.586 L 0 178.862 L 9 178.862 L 9 151.138 L 0 151.138 L 0 123.414 L 9 123.414 L 9 95.69 L 0 95.69 L 0 70 L 450 70 L 450 95.69 L 450 151.138 L 450 206.586 M 459 178.862 L 441 178.862 L 441 151.138 L 459 151.138 M 459 123.414 L 441 123.414 L 441 95.69 L 459 95.69 M 459 234.31 L 441 234.31 L 441 206.586 L 459 206.586 M 294.31 260 L 294.31 251 L 266.586 251 L 266.586 260 M 349.758 260 L 349.758 251 L 322.034 251 L 322.034 260 M 405.207 260 L 405.207 251 L 377.483 251 L 377.483 260 M 72.517 260 L 72.517 251 L 44.793 251 L 44.793 260 M 127.966 260 L 127.966 251 L 100.242 251 L 100.242 260 M 183.414 260 L 183.414 251 L 155.69 251 L 155.69 260 M 238.862 260 L 238.862 251 L 211.138 251 L 211.138 260" id="back_outsideCutPath" stroke="#FF0000" stroke-width="0.1" style="stroke:#FF0000;stroke-width:0.1" vector-effect="non-scaling-stroke"/><path d="M 459 95.69 L 459 70 L 891 70 L 891 95.69 L 900 95.69 L 900 127.966 M 900 123.414 L 891 123.414 L 891 151.138 L 900 151.138 L 900 183.414 M 900 178.862 L 891 178.862 L 891 206.586 L 900 206.586 L 900 238.862 M 522.517 260 L 522.517 251 L 494.793 251 L 494.793 260 M 577.966 260 L 577.966 251 L 550.242 251 L 550.242 260 M 633.414 260 L 633.414 251 L 605.69 251 L 605.69 260 M 744.31 260 L 744.31 251 L 716.586 251 L 716.586 260 M 855.207 260 L 855.207 251 L 827.483 251 L 827.483 260 M 688.862 260 L 688.862 251 L 661.138 251 L 661.138 260 M 799.758 260 L 799.758 251 L 772.034 251 L 772.034 260 M 459 123.414 459 151.138 M 459 178.862 459 206.586 M 891 234.31 900 234.31" id="right_outsideCutPath" stroke="#FF0000" stroke-width="0.1" style="stroke:#FF0000;stroke-width:0.1" vector-effect="non-scaling-stroke"/><path d="M 900 100.242 L 909 100.242 L 909 72.517 L 900 72.517 L 900 44.793 L 909 44.793 L 909 9 L 917.069 9 L 944.793 9 L 944.793 0 L 972.517 0 L 972.517 9 L 1000.242 9 L 1000.242 0 L 1027.966 0 L 1027.966 9 L 1055.69 9 L 1055.69 0 L 1083.414 0 L 1083.414 9 L 1111.138 9 L 1111.138 0 L 1138.862 0 L 1138.862 9 L 1166.586 9 L 1166.586 0 L 1194.31 0 L 1194.31 9 L 1222.034 9 L 1222.034 0 L 1249.758 0 L 1249.758 9 L 1277.483 9 L 1277.483 0 L 1305.207 0 L 1305.207 9 L 1341 9 L 1341 17.069 L 1341 44.793 L 1350 44.793 L 1350 72.517 L 1341 72.517 L 1341 100.242 L 1350 100.242 L 1350 127.966 L 1341 127.966 L 1341 155.69 L 1350 155.69 L 1350 183.414 L 1341 183.414 L 1341 211.138 L 1350 211.138 L 1350 238.862 L 1341 238.862 L 1341 266.586 L 1350 266.586 L 1350 294.31 L 1341 294.31 L 1341 322.034 L 1350 322.034 L 1350 349.758 L 1341 349.758 L 1341 377.483 L 1350 377.483 L 1350 405.207 L 1341 405.207 L 1341 441 L 1332.931 441 L 1305.207 441 L 1305.207 450 L 1277.483 450 L 1277.483 441 L 1249.758 441 L 1249.758 450 L 1222.034 450 L 1222.034 441 L 1194.31 441 L 1194.31 450 L 1166.586 450 L 1166.586 441 L 1138.862 441 L 1138.862 450 L 1111.138 450 L 1111.138 441 L 1083.414 441 L 1083.414 450 L 1055.69 450 L 1055.69 441 L 1027.966 441 L 1027.966 450 L 1000.242 450 L 1000.242 441 L 972.517 441 L 972.517 450 L 944.793 450 L 944.793 441 L 909 441 L 909 432.931 L 909 405.207 L 900 405.207 M 900 155.69 L 909 155.69 L 909 127.966 L 900 127.966 M 900 377.483 L 909 377.483 L 909 349.758 L 900 349.758 M 900 266.586 L 909 266.586 L 909 238.862 L 900 238.862 M 900 322.034 L 909 322.034 L 909 294.31 L 900 294.31 M 900 211.138 L 909 211.138 L 909 183.414 L 900 183.414" id="bottom_outsideCutPath" stroke="#FF0000" stroke-width="0.1" style="stroke:#FF0000;stroke-width:0.1" vector-effect="non-scaling-stroke"/></g></svg>